<svg width="19" height="16" viewBox="0 0 19 16" fill="none" xmlns="http://www.w3.org/2000/svg">
<path d="M15.6369 0C15.8726 0 16.0987 0.0936505 16.2654 0.260349C16.4321 0.427048 16.5258 0.653141 16.5258 0.888889V2.45067L14.748 4.22844V1.77778H2.30356V8.97778L5.85911 5.42222L9.70622 9.27022L8.52667 10.4498L8.52134 14.2178L12.2956 14.2231L13.4778 13.0409L14.6582 14.2222H14.748V11.7707L16.5258 9.99289V15.1111C16.5258 15.3469 16.4321 15.573 16.2654 15.7397C16.0987 15.9064 15.8726 16 15.6369 16H1.41467C1.17892 16 0.952828 15.9064 0.786129 15.7397C0.61943 15.573 0.52578 15.3469 0.52578 15.1111V0.888889C0.52578 0.653141 0.61943 0.427048 0.786129 0.260349C0.952828 0.0936505 1.17892 0 1.41467 0H15.6369ZM17.2173 4.27378L18.4742 5.53067L11.5604 12.4444L10.3018 12.4427L10.3036 11.1876L17.2173 4.27378ZM11.6369 3.55556C11.812 3.55561 11.9855 3.59017 12.1473 3.65725C12.3091 3.72434 12.4561 3.82263 12.5799 3.94652C12.7037 4.07042 12.8019 4.21749 12.8689 4.37933C12.9358 4.54117 12.9703 4.71462 12.9702 4.88978C12.9702 5.06493 12.9356 5.23836 12.8685 5.40016C12.8014 5.56196 12.7031 5.70896 12.5793 5.83277C12.4554 5.95658 12.3083 6.05478 12.1464 6.12175C11.9846 6.18873 11.8112 6.22317 11.636 6.22311C11.2823 6.22299 10.9431 6.08236 10.693 5.83214C10.443 5.58193 10.3026 5.24263 10.3027 4.88889C10.3028 4.53515 10.4434 4.19594 10.6936 3.9459C10.9439 3.69585 11.2832 3.55544 11.6369 3.55556Z" fill="white"/>
</svg>
